# Wavefront Obj file
# 
# verts: 154 uv-s: 174
mtllib disco.mtl

g Group1

v 39.245159 66.906105 -0.097096
v 38.447037 66.906105 -7.903649
v 36.158321 66.906105 -15.267732
v 32.537540 66.906105 -21.933743
v 27.743177 66.906105 -27.743181
v 21.933743 66.906105 -32.537544
v 15.267730 66.906105 -36.158321
v 7.903649 66.906105 -38.447037
v -0.000002 66.906105 -39.245159
v -7.903652 66.906105 -38.447037
v -15.267735 66.906105 -36.158321
v -21.933744 66.906105 -32.537540
v -27.743181 66.906105 -27.743177
v -32.537544 66.906105 -21.933743
v -36.158321 66.906105 -15.267730
v -38.447037 66.906105 -7.903647
v -39.245159 66.906105 -0.097096
v -38.447037 66.906105 7.903654
v -36.158321 66.906105 15.267735
v -32.537544 66.906105 21.933744
v -27.743177 66.906105 27.743181
v -21.933743 66.906105 32.537544
v -15.267732 66.906105 36.158321
v -7.903649 66.906105 38.447037
v 0.000000 66.906105 39.245159
v 7.903649 66.906105 38.447037
v 15.267732 66.906105 36.158321
v 21.933743 66.906105 32.537544
v 27.743181 66.906105 27.743177
v 32.537544 66.906105 21.933743
v 36.158321 66.906105 15.267732
v 38.447037 66.906105 7.903651
v 39.245159 69.406105 -0.097096
v 38.447037 69.406105 -7.903649
v 36.158321 69.406105 -15.267732
v 32.537540 69.406105 -21.933743
v 27.743177 69.406105 -27.743181
v 21.933743 69.406105 -32.537544
v 15.267730 69.406105 -36.158321
v 7.903649 69.406105 -38.447037
v -0.000002 69.406105 -39.245159
v -7.903652 69.406105 -38.447037
v -15.267735 69.406105 -36.158321
v -21.933744 69.406105 -32.537540
v -27.743181 69.406105 -27.743177
v -32.537544 69.406105 -21.933743
v -36.158321 69.406105 -15.267730
v -38.447037 69.406105 -7.903647
v -39.245159 69.406105 -0.208267
v -38.447037 69.406105 7.903654
v -36.158321 69.406105 15.267735
v -32.537544 69.406105 21.933744
v -27.743177 69.406105 27.743181
v -21.933743 69.406105 32.537544
v -15.267732 69.406105 36.158321
v -7.903649 69.406105 38.447037
v 0.000000 69.406105 39.245159
v 7.903649 69.406105 38.447037
v 15.267732 69.406105 36.158321
v 21.933743 69.406105 32.537544
v 27.743181 69.406105 27.743177
v 32.537544 69.406105 21.933743
v 36.158321 69.406105 15.267732
v 38.447037 69.406105 7.903651
v 18.344654 69.406105 -29.026764
v 9.178800 69.406105 -30.109184
v -0.000002 69.406105 -30.516685
v -9.178803 69.406105 -30.109184
v -18.344656 69.406105 -29.026764
v -21.193232 69.406105 -22.099665
v -10.471230 69.406105 -22.451952
v -0.000001 69.406105 -22.609793
v 10.471229 69.406105 -22.451952
v 21.193230 69.406105 -22.099665
v -23.427727 69.406105 -14.991473
v -11.521113 69.406105 -14.998304
v -0.000001 69.406105 -15.029126
v 11.521111 69.406105 -14.998304
v 23.427727 69.406105 -14.991473
v -24.849585 69.406105 -7.605403
v -12.196824 69.406105 -7.529680
v -0.000001 69.406105 -7.520529
v 12.196824 69.406105 -7.529680
v 24.849585 69.406105 -7.605405
v -25.340059 69.406105 -0.208267
v -12.429925 69.406105 -0.097096
v 0.000000 69.406105 -0.097096
v 12.429925 69.406105 -0.097096
v 25.340059 69.406105 -0.097096
v -24.849585 69.406105 7.605409
v -12.196824 69.406105 7.529684
v 0.000000 69.406105 7.520533
v 12.196824 69.406105 7.529683
v 24.849585 69.406105 7.605407
v -23.427727 69.406105 14.991478
v -11.521113 69.406105 14.998308
v 0.000000 69.406105 15.029133
v 11.521113 69.406105 14.998308
v 23.427727 69.406105 14.991475
v -21.193232 69.406105 22.099667
v -10.471230 69.406105 22.451956
v 0.000000 69.406105 22.609795
v 10.471230 69.406105 22.451952
v 21.193232 69.406105 22.099667
v -18.344654 69.406105 29.026768
v -9.178801 69.406105 30.109186
v 0.000000 69.406105 30.516685
v 9.178801 69.406105 30.109184
v 18.344654 69.406105 29.026764
v 18.342457 66.906105 29.025286
v 21.189056 66.906105 22.097311
v 23.421982 66.906105 14.989163
v 24.842823 66.906105 7.603997
v 25.332951 66.906105 -0.097096
v 24.842819 66.906105 -7.603995
v 23.421978 66.906105 -14.989161
v 21.189053 66.906105 -22.097311
v 18.342457 66.906105 -29.025291
v 9.176605 66.906105 30.106627
v 10.467053 66.906105 22.447878
v 11.515364 66.906105 14.994298
v 12.190064 66.906105 7.527241
v 12.422817 66.906105 -0.097096
v 12.190064 66.906105 -7.527240
v 11.515361 66.906105 -14.994298
v 10.467050 66.906105 -22.447878
v 9.176604 66.906105 -30.106627
v 0.000000 66.906105 30.513731
v 0.000000 66.906105 22.605087
v 0.000000 66.906105 15.024506
v 0.000000 66.906105 7.517714
v 0.000000 66.906105 -0.097096
v 0.000000 66.906105 -7.517712
v -0.000001 66.906105 -15.024505
v -0.000001 66.906105 -22.605087
v -0.000002 66.906105 -30.513731
v -9.176605 66.906105 30.106627
v -10.467053 66.906105 22.447880
v -11.515364 66.906105 14.994302
v -12.190064 66.906105 7.527242
v -12.422817 66.906105 -0.097096
v -12.190064 66.906105 -7.527239
v -11.515364 66.906105 -14.994298
v -10.467053 66.906105 -22.447878
v -9.176607 66.906105 -30.106627
v -18.342457 66.906105 29.025293
v -21.189056 66.906105 22.097317
v -23.421982 66.906105 14.989164
v -24.842823 66.906105 7.603999
v -25.332951 66.906105 -0.097096
v -24.842823 66.906105 -7.603993
v -23.421982 66.906105 -14.989161
v -21.189056 66.906105 -22.097311
v -18.342461 66.906105 -29.025291
# 154 positions

vt 0.278650 0.343740
vt 0.283440 0.389370
vt 0.270040 0.389720
vt 0.265160 0.343980
vt 0.289290 0.433640
vt 0.275670 0.433990
vt 0.295740 0.477330
vt 0.281730 0.477200
vt 0.297670 0.522750
vt 0.287260 0.519740
vt 0.319070 0.565650
vt 0.284890 0.564030
vt 0.274320 0.619250
vt 0.263160 0.606470
vt 0.225700 0.657150
vt 0.218040 0.642100
vt 0.173850 0.683030
vt 0.167940 0.667690
vt 0.880540 0.666750
vt 0.825090 0.650550
vt 0.830760 0.634410
vt 0.884590 0.650280
vt 0.768620 0.621590
vt 0.778880 0.607290
vt 0.705850 0.572520
vt 0.729700 0.566270
vt 0.711920 0.521780
vt 0.728980 0.520720
vt 0.716910 0.476450
vt 0.731870 0.476110
vt 0.721300 0.432070
vt 0.735250 0.431880
vt 0.725020 0.386940
vt 0.738460 0.386730
vt 0.727730 0.340420
vt 0.741010 0.340640
vt 0.728860 0.291830
vt 0.742370 0.290690
vt 0.727570 0.245070
vt 0.742000 0.241820
vt 0.721440 0.203200
vt 0.742940 0.190830
vt 0.678670 0.173950
vt 0.686030 0.158780
vt 0.636680 0.151230
vt 0.641060 0.141590
vt 0.592630 0.134320
vt 0.597400 0.118410
vt 0.548300 0.123270
vt 0.550170 0.107470
vt 0.502910 0.120070
vt 0.502910 0.104630
vt 0.457210 0.122960
vt 0.455540 0.107740
vt 0.413790 0.130610
vt 0.410400 0.115540
vt 0.368170 0.144910
vt 0.365000 0.129610
vt 0.324980 0.167940
vt 0.317760 0.152690
vt 0.284690 0.203350
vt 0.263790 0.194010
vt 0.275780 0.249020
vt 0.260170 0.246910
vt 0.275450 0.295920
vt 0.261370 0.295690
vt 0.360940 0.605250
vt 0.358390 0.553910
vt 0.788060 0.504260
vt 0.773800 0.555160
vt 0.851380 0.525880
vt 0.836940 0.577640
vt 0.919240 0.545520
vt 0.898640 0.594960
vt 0.167680 0.536570
vt 0.193120 0.587500
vt 0.136860 0.615550
vt 0.104180 0.565710
vt 0.227150 0.508080
vt 0.245050 0.556180
vt 0.800690 0.453250
vt 0.868630 0.473550
vt 0.941410 0.494280
vt 0.075320 0.512980
vt 0.145680 0.485070
vt 0.211710 0.459140
vt 0.810610 0.401310
vt 0.883380 0.419870
vt 0.960700 0.439540
vt 0.052500 0.457160
vt 0.128120 0.431850
vt 0.199300 0.408410
vt 0.817650 0.349700
vt 0.894390 0.365830
vt 0.974570 0.383310
vt 0.036380 0.400760
vt 0.115050 0.378020
vt 0.190110 0.356450
vt 0.823020 0.295040
vt 0.902730 0.310450
vt 0.983430 0.325700
vt 0.025100 0.344180
vt 0.104560 0.323070
vt 0.183310 0.302220
vt 0.828560 0.242980
vt 0.910610 0.257070
vt 0.989080 0.270870
vt 0.015790 0.291380
vt 0.093250 0.271370
vt 0.176470 0.249670
vt 0.840520 0.193230
vt 0.923060 0.205760
vt 0.996090 0.218190
vt 0.003900 0.240730
vt 0.075680 0.222860
vt 0.156650 0.204350
vt 0.638830 0.099950
vt 0.686800 0.089920
vt 0.574500 0.064800
vt 0.603510 0.026550
vt 0.502910 0.053280
vt 0.502910 0.003900
vt 0.432470 0.062920
vt 0.404610 0.021230
vt 0.366890 0.094490
vt 0.316510 0.081410
vt 0.354510 0.303720
vt 0.355510 0.354520
vt 0.356850 0.404740
vt 0.357290 0.455290
vt 0.356170 0.505250
vt 0.356140 0.255500
vt 0.364580 0.210230
vt 0.387450 0.170140
vt 0.446000 0.172770
vt 0.435770 0.218510
vt 0.430430 0.264660
vt 0.428980 0.313490
vt 0.429140 0.365230
vt 0.429400 0.416820
vt 0.429040 0.469230
vt 0.428040 0.521470
vt 0.427800 0.574550
vt 0.427740 0.632540
vt 0.502910 0.173400
vt 0.502910 0.221560
vt 0.502910 0.269060
vt 0.502910 0.318140
vt 0.502910 0.369870
vt 0.502910 0.421540
vt 0.502910 0.474230
vt 0.502910 0.526890
vt 0.502910 0.580990
vt 0.502910 0.641400
vt 0.559240 0.174140
vt 0.569580 0.219800
vt 0.574650 0.266050
vt 0.576550 0.314610
vt 0.577250 0.366130
vt 0.577980 0.417790
vt 0.579440 0.470600
vt 0.581300 0.523390
vt 0.578730 0.575530
vt 0.568780 0.632940
vt 0.616740 0.175140
vt 0.640120 0.213530
vt 0.648930 0.256690
vt 0.651350 0.303800
vt 0.651380 0.354220
vt 0.651080 0.404570
vt 0.651640 0.455720
vt 0.653890 0.507170
vt 0.657950 0.560010
vt 0.633500 0.612410
# 174 texture coordinates

vn 0.176865 -0.984235 -0.000000
vn 0.179839 -0.983015 -0.036593
vn 0.190305 -0.978447 -0.080157
vn 0.214856 -0.965833 -0.144928
vn 0.282325 -0.916834 -0.282325
vn 0.537024 -0.278868 -0.796139
vn 0.163575 -0.906876 -0.388354
vn 0.059634 -0.953649 -0.294954
vn -0.000000 -0.961370 -0.275261
vn -0.059634 -0.953649 -0.294954
vn -0.163575 -0.906876 -0.388354
vn -0.537025 -0.278867 -0.796139
vn -0.282325 -0.916834 -0.282325
vn -0.214856 -0.965833 -0.144928
vn -0.190305 -0.978447 -0.080157
vn -0.179839 -0.983015 -0.036593
vn -0.176865 -0.984235 -0.000000
vn -0.179852 -0.983030 0.036133
vn -0.190305 -0.978447 0.080157
vn -0.214856 -0.965833 0.144928
vn -0.282325 -0.916834 0.282325
vn -0.537025 -0.278868 0.796139
vn -0.163575 -0.906876 0.388354
vn -0.059634 -0.953649 0.294954
vn -0.000000 -0.961370 0.275261
vn 0.059634 -0.953649 0.294954
vn 0.163575 -0.906876 0.388353
vn 0.537025 -0.278868 0.796139
vn 0.282325 -0.916835 0.282325
vn 0.214856 -0.965833 0.144928
vn 0.190305 -0.978447 0.080157
vn 0.179852 -0.983030 0.036133
vn 0.176953 0.984219 -0.000000
vn 0.179929 0.982998 -0.036611
vn 0.190400 0.978425 -0.080197
vn 0.214959 0.965799 -0.144997
vn 0.282432 0.916768 -0.282432
vn 0.537024 0.278868 -0.796139
vn 0.163630 0.906810 -0.388485
vn 0.059654 0.953617 -0.295053
vn -0.000000 0.961345 -0.275347
vn -0.059654 0.953617 -0.295053
vn -0.163630 0.906810 -0.388485
vn -0.537025 0.278867 -0.796139
vn -0.282432 0.916768 -0.282432
vn -0.214959 0.965799 -0.144997
vn -0.190400 0.978425 -0.080197
vn -0.179922 0.982989 -0.036880
vn -0.176953 0.984219 -0.000000
vn -0.179949 0.983021 0.035893
vn -0.190400 0.978425 0.080197
vn -0.214959 0.965799 0.144997
vn -0.282432 0.916768 0.282432
vn -0.537025 0.278868 0.796139
vn -0.163630 0.906810 0.388485
vn -0.059654 0.953617 0.295053
vn -0.000000 0.961345 0.275347
vn 0.059654 0.953617 0.295053
vn 0.163630 0.906810 0.388485
vn 0.537025 0.278868 0.796139
vn 0.282432 0.916768 0.282432
vn 0.214959 0.965799 0.144997
vn 0.190400 0.978425 0.080197
vn 0.179942 0.983013 0.036151
vn -0.000000 1.000000 -0.000000
vn -0.000000 1.000000 -0.000000
vn -0.000000 1.000000 -0.000000
vn -0.000000 1.000000 -0.000000
vn -0.000000 1.000000 -0.000000
vn -0.000000 1.000000 -0.000000
vn -0.000000 1.000000 -0.000000
vn -0.000000 1.000000 -0.000000
vn -0.000000 1.000000 -0.000000
vn -0.000000 1.000000 -0.000000
vn -0.000000 1.000000 -0.000000
vn -0.000000 1.000000 -0.000000
vn -0.000000 1.000000 -0.000000
vn -0.000000 1.000000 -0.000000
vn -0.000000 1.000000 -0.000000
vn -0.000000 1.000000 -0.000000
vn -0.000000 1.000000 -0.000000
vn -0.000000 1.000000 -0.000000
vn -0.000000 1.000000 -0.000000
vn -0.000000 1.000000 -0.000000
vn -0.000000 1.000000 -0.000000
vn -0.000000 1.000000 -0.000000
vn -0.000000 1.000000 -0.000000
vn -0.000000 1.000000 -0.000000
vn -0.000000 1.000000 -0.000000
vn -0.000000 1.000000 -0.000000
vn -0.000000 1.000000 -0.000000
vn -0.000000 1.000000 -0.000000
vn -0.000000 1.000000 -0.000000
vn -0.000000 1.000000 -0.000000
vn -0.000000 1.000000 -0.000000
vn -0.000000 1.000000 -0.000000
vn -0.000000 1.000000 -0.000000
vn -0.000000 1.000000 -0.000000
vn -0.000000 1.000000 -0.000000
vn -0.000000 1.000000 -0.000000
vn -0.000000 1.000000 -0.000000
vn -0.000000 1.000000 -0.000000
vn -0.000000 1.000000 -0.000000
vn -0.000000 1.000000 -0.000000
vn -0.000000 1.000000 -0.000000
vn -0.000000 1.000000 -0.000000
vn -0.000000 1.000000 -0.000000
vn -0.000000 1.000000 -0.000000
vn -0.000000 1.000000 -0.000000
vn -0.000000 -1.000000 -0.000000
vn -0.000000 -1.000000 -0.000000
vn -0.000000 -1.000000 -0.000000
vn -0.000000 -1.000000 -0.000000
vn -0.000000 -1.000000 -0.000000
vn -0.000000 -1.000000 -0.000000
vn -0.000000 -1.000000 -0.000000
vn -0.000000 -1.000000 -0.000000
vn -0.000000 -1.000000 -0.000000
vn -0.000000 -1.000000 -0.000000
vn -0.000000 -1.000000 -0.000000
vn -0.000000 -1.000000 -0.000000
vn -0.000000 -1.000000 -0.000000
vn -0.000000 -1.000000 -0.000000
vn -0.000000 -1.000000 -0.000000
vn -0.000000 -1.000000 -0.000000
vn -0.000000 -1.000000 -0.000000
vn -0.000000 -1.000000 -0.000000
vn -0.000000 -1.000000 -0.000000
vn -0.000000 -1.000000 -0.000000
vn -0.000000 -1.000000 -0.000000
vn -0.000000 -1.000000 -0.000000
vn -0.000000 -1.000000 -0.000000
vn -0.000000 -1.000000 -0.000000
vn -0.000000 -1.000000 -0.000000
vn -0.000000 -1.000000 -0.000000
vn -0.000000 -1.000000 -0.000000
vn -0.000000 -1.000000 -0.000000
vn -0.000000 -1.000000 -0.000000
vn -0.000000 -1.000000 -0.000000
vn -0.000000 -1.000000 -0.000000
vn -0.000000 -1.000000 -0.000000
vn -0.000000 -1.000000 -0.000000
vn -0.000000 -1.000000 -0.000000
vn -0.000000 -1.000000 -0.000000
vn -0.000000 -1.000000 -0.000000
vn -0.000000 -1.000000 -0.000000
vn -0.000000 -1.000000 -0.000000
vn -0.000000 -1.000000 -0.000000
vn -0.000000 -1.000000 -0.000000
vn -0.000000 -1.000000 -0.000000
vn -0.000000 -1.000000 -0.000000
vn -0.000000 -1.000000 -0.000000
vn -0.000000 -1.000000 -0.000000
vn -0.000000 -1.000000 -0.000000
# 154 normals

usemtl defaultMat
f 1/1/1 2/2/2 34/3/34 33/4/33
f 2/2/2 3/5/3 35/6/35 34/3/34
f 3/5/3 4/7/4 36/8/36 35/6/35
f 4/7/4 5/9/5 37/10/37 36/8/36
f 5/9/5 6/11/6 38/12/38 37/10/37
f 6/11/6 7/13/7 39/14/39 38/12/38
f 7/13/7 8/15/8 40/16/40 39/14/39
f 8/15/8 9/17/9 41/18/41 40/16/40
f 9/19/9 10/20/10 42/21/42 41/22/41
f 10/20/10 11/23/11 43/24/43 42/21/42
f 11/23/11 12/25/12 44/26/44 43/24/43
f 12/25/12 13/27/13 45/28/45 44/26/44
f 13/27/13 14/29/14 46/30/46 45/28/45
f 14/29/14 15/31/15 47/32/47 46/30/46
f 15/31/15 16/33/16 48/34/48 47/32/47
f 16/33/16 17/35/17 49/36/49 48/34/48
f 17/35/17 18/37/18 50/38/50 49/36/49
f 18/37/18 19/39/19 51/40/51 50/38/50
f 19/39/19 20/41/20 52/42/52 51/40/51
f 20/41/20 21/43/21 53/44/53 52/42/52
f 21/43/21 22/45/22 54/46/54 53/44/53
f 22/45/22 23/47/23 55/48/55 54/46/54
f 23/47/23 24/49/24 56/50/56 55/48/55
f 24/49/24 25/51/25 57/52/57 56/50/56
f 25/51/25 26/53/26 58/54/58 57/52/57
f 26/53/26 27/55/27 59/56/59 58/54/58
f 27/55/27 28/57/28 60/58/60 59/56/59
f 28/57/28 29/59/29 61/60/61 60/58/60
f 29/59/29 30/61/30 62/62/62 61/60/61
f 30/61/30 31/63/31 63/64/63 62/62/62
f 31/63/31 32/65/32 64/66/64 63/64/63
f 32/65/32 1/1/1 33/4/33 64/66/64
f 7/67/7 6/11/6 5/9/5 118/68/118
f 45/28/45 46/30/46 70/69/70 69/70/69
f 71/71/71 68/72/68 69/70/69 70/69/70
f 72/73/72 67/74/67 68/72/68 71/71/71
f 73/75/73 66/76/66 67/77/67 72/78/72
f 74/79/74 65/80/65 66/76/66 73/75/73
f 36/8/36 37/10/37 65/80/65 74/79/74
f 37/10/37 38/12/38 39/14/39 65/80/65
f 65/80/65 39/14/39 40/16/40 66/76/66
f 66/76/66 40/16/40 41/18/41 67/77/67
f 67/74/67 41/22/41 42/21/42 68/72/68
f 68/72/68 42/21/42 43/24/43 69/70/69
f 69/70/69 43/24/43 44/26/44 45/28/45
f 46/30/46 47/32/47 75/81/75 70/69/70
f 70/69/70 75/81/75 76/82/76 71/71/71
f 71/71/71 76/82/76 77/83/77 72/73/72
f 72/78/72 77/84/77 78/85/78 73/75/73
f 73/75/73 78/85/78 79/86/79 74/79/74
f 74/79/74 79/86/79 35/6/35 36/8/36
f 47/32/47 48/34/48 80/87/80 75/81/75
f 75/81/75 80/87/80 81/88/81 76/82/76
f 76/82/76 81/88/81 82/89/82 77/83/77
f 77/84/77 82/90/82 83/91/83 78/85/78
f 78/85/78 83/91/83 84/92/84 79/86/79
f 79/86/79 84/92/84 34/3/34 35/6/35
f 48/34/48 49/36/49 85/93/85 80/87/80
f 80/87/80 85/93/85 86/94/86 81/88/81
f 81/88/81 86/94/86 87/95/87 82/89/82
f 82/90/82 87/96/87 88/97/88 83/91/83
f 83/91/83 88/97/88 89/98/89 84/92/84
f 84/92/84 89/98/89 33/4/33 34/3/34
f 49/36/49 50/38/50 90/99/90 85/93/85
f 85/93/85 90/99/90 91/100/91 86/94/86
f 86/94/86 91/100/91 92/101/92 87/95/87
f 87/96/87 92/102/92 93/103/93 88/97/88
f 88/97/88 93/103/93 94/104/94 89/98/89
f 89/98/89 94/104/94 64/66/64 33/4/33
f 50/38/50 51/40/51 95/105/95 90/99/90
f 90/99/90 95/105/95 96/106/96 91/100/91
f 91/100/91 96/106/96 97/107/97 92/101/92
f 92/102/92 97/108/97 98/109/98 93/103/93
f 93/103/93 98/109/98 99/110/99 94/104/94
f 94/104/94 99/110/99 63/64/63 64/66/64
f 51/40/51 52/42/52 100/111/100 95/105/95
f 95/105/95 100/111/100 101/112/101 96/106/96
f 96/106/96 101/112/101 102/113/102 97/107/97
f 97/108/97 102/114/102 103/115/103 98/109/98
f 98/109/98 103/115/103 104/116/104 99/110/99
f 99/110/99 104/116/104 62/62/62 63/64/63
f 52/42/52 53/44/53 105/117/105 100/118/100
f 100/118/100 105/117/105 106/119/106 101/120/101
f 101/120/101 106/119/106 107/121/107 102/122/102
f 102/122/102 107/121/107 108/123/108 103/124/103
f 103/124/103 108/123/108 109/125/109 104/126/104
f 104/126/104 109/125/109 61/60/61 62/62/62
f 53/44/53 54/46/54 55/48/55 105/117/105
f 105/117/105 55/48/55 56/50/56 106/119/106
f 106/119/106 56/50/56 57/52/57 107/121/107
f 107/121/107 57/52/57 58/54/58 108/123/108
f 108/123/108 58/54/58 59/56/59 109/125/109
f 109/125/109 59/56/59 60/58/60 61/60/61
f 1/1/1 32/65/32 113/127/113 114/128/114
f 2/2/2 1/1/1 114/128/114 115/129/115
f 3/5/3 2/2/2 115/129/115 116/130/116
f 4/7/4 3/5/3 116/130/116 117/131/117
f 32/65/32 31/63/31 112/132/112 113/127/113
f 31/63/31 30/61/30 111/133/111 112/132/112
f 30/61/30 29/59/29 110/134/110 111/133/111
f 5/9/5 4/7/4 117/131/117 118/68/118
f 29/59/29 28/57/28 27/55/27 110/134/110
f 27/55/27 26/53/26 119/135/119 110/134/110
f 110/134/110 119/135/119 120/136/120 111/133/111
f 111/133/111 120/136/120 121/137/121 112/132/112
f 112/132/112 121/137/121 122/138/122 113/127/113
f 113/127/113 122/138/122 123/139/123 114/128/114
f 114/128/114 123/139/123 124/140/124 115/129/115
f 115/129/115 124/140/124 125/141/125 116/130/116
f 116/130/116 125/141/125 126/142/126 117/131/117
f 117/131/117 126/142/126 127/143/127 118/68/118
f 118/68/118 127/143/127 8/144/8 7/67/7
f 26/53/26 25/51/25 128/145/128 119/135/119
f 119/135/119 128/145/128 129/146/129 120/136/120
f 120/136/120 129/146/129 130/147/130 121/137/121
f 121/137/121 130/147/130 131/148/131 122/138/122
f 122/138/122 131/148/131 132/149/132 123/139/123
f 123/139/123 132/149/132 133/150/133 124/140/124
f 124/140/124 133/150/133 134/151/134 125/141/125
f 125/141/125 134/151/134 135/152/135 126/142/126
f 126/142/126 135/152/135 136/153/136 127/143/127
f 127/143/127 136/153/136 9/154/9 8/144/8
f 25/51/25 24/49/24 137/155/137 128/145/128
f 128/145/128 137/155/137 138/156/138 129/146/129
f 129/146/129 138/156/138 139/157/139 130/147/130
f 130/147/130 139/157/139 140/158/140 131/148/131
f 131/148/131 140/158/140 141/159/141 132/149/132
f 132/149/132 141/159/141 142/160/142 133/150/133
f 133/150/133 142/160/142 143/161/143 134/151/134
f 134/151/134 143/161/143 144/162/144 135/152/135
f 135/152/135 144/162/144 145/163/145 136/153/136
f 136/153/136 145/163/145 10/164/10 9/154/9
f 24/49/24 23/47/23 146/165/146 137/155/137
f 137/155/137 146/165/146 147/166/147 138/156/138
f 138/156/138 147/166/147 148/167/148 139/157/139
f 139/157/139 148/167/148 149/168/149 140/158/140
f 140/158/140 149/168/149 150/169/150 141/159/141
f 141/159/141 150/169/150 151/170/151 142/160/142
f 142/160/142 151/170/151 152/171/152 143/161/143
f 143/161/143 152/171/152 153/172/153 144/162/144
f 144/162/144 153/172/153 154/173/154 145/163/145
f 145/163/145 154/173/154 11/174/11 10/164/10
f 23/47/23 22/45/22 21/43/21 146/165/146
f 146/165/146 21/43/21 20/41/20 147/166/147
f 147/166/147 20/41/20 19/39/19 148/167/148
f 148/167/148 19/39/19 18/37/18 149/168/149
f 149/168/149 18/37/18 17/35/17 150/169/150
f 150/169/150 17/35/17 16/33/16 151/170/151
f 151/170/151 16/33/16 15/31/15 152/171/152
f 152/171/152 15/31/15 14/29/14 153/172/153
f 153/172/153 14/29/14 13/27/13 154/173/154
f 154/173/154 13/27/13 12/25/12 11/174/11

# 152 faces
