# 3ds Max Wavefront OBJ Exporter v0.97b - (c)2007 guruware
# File Created: 31.03.2017 20:17:17

mtllib piedra 1.mtl

#
# object piedra1
#

v  0.1769 0.2565 -0.0109
v  0.1769 0.2516 0.0509
v  0.1769 0.2437 0.0848
v  0.1769 0.0186 0.3062
v  0.1769 0.0186 -0.3046
v  0.1769 0.1850 -0.3046
v  -0.0117 0.1563 -0.3046
v  -0.0617 0.0186 -0.3046
v  -0.0455 0.1364 -0.3046
v  -0.0793 0.0186 0.3097
v  -0.1769 0.0186 0.1860
v  -0.1176 0.1980 0.0381
v  -0.0619 0.2373 0.0599
v  0.1547 0.2598 0.0165
v  -0.0350 0.2468 0.0821
v  -0.0332 0.2460 0.0854
# 16 vertices

vn 1.0000 0.0000 -0.0000
vn 0.0000 0.0000 -1.0000
vn 0.0000 -1.0000 0.0000
vn 0.0000 -1.0000 -0.0000
vn -0.0000 -1.0000 0.0000
vn -0.4894 0.8346 -0.2529
vn -0.9650 0.1322 -0.2266
vn 0.2394 0.9679 0.0766
vn -0.1466 0.9612 -0.2338
vn 0.0097 0.7013 0.7128
vn -0.6221 0.6102 0.4905
vn 0.0112 0.9743 0.2251
# 12 vertex normals

vt 0.3440 0.4172 0.0000
vt 0.3369 0.5050 0.0000
vt 0.3256 0.5532 0.0000
vt 0.0000 0.8678 0.0000
vt 0.0000 0.0000 0.0000
vt 0.2407 0.0000 0.0000
vt 0.2727 0.1991 0.0000
vt 0.0000 0.2407 0.0000
vt 0.3450 0.0000 0.0000
vt 0.3216 0.1703 0.0000
vt 0.6550 -0.0000 0.0000
vt 1.0000 -0.0000 0.0000
vt 1.0000 0.8678 0.0000
vt 0.6295 0.8728 0.0000
vt 0.4884 0.6970 0.0000
vt 0.4667 0.1839 0.0000
vt 0.5199 0.2318 0.0000
vt 0.4477 0.0240 0.0000
vt 0.4689 0.0231 0.0000
vt 0.3945 0.6970 0.0000
vt 0.4479 0.3650 0.0000
vt 0.4002 0.5050 0.0000
vt 0.5574 0.2037 0.0000
vt 0.6114 0.3233 0.0000
vt 0.6239 0.3328 0.0000
vt 0.5834 0.2295 0.0000
vt 0.5894 0.3725 0.0000
vt 0.6037 0.8728 0.0000
vt 0.4399 0.5532 0.0000
vt 0.5896 0.3725 0.0000
vt 0.5910 0.3658 0.0000
# 31 texture coords

g piedra1
usemtl wire_225191223
s 16
f 1/1/1 2/2/1 3/3/1 4/4/1 
f 1/1/1 4/4/1 5/5/1 6/6/1 
s 7
f 7/7/2 6/8/2 5/5/2 8/9/2 
f 7/7/2 8/9/2 9/10/2 
s 8
f 8/11/3 5/12/4 4/13/5 10/14/5 
f 8/11/3 10/14/5 11/15/3 
s 128
f 12/16/6 13/17/6 7/18/6 9/19/6 
s 64
f 8/9/7 11/20/7 12/16/7 9/19/7 
s 512
f 1/1/8 14/21/8 2/22/8 
s 32
f 1/23/9 6/6/9 7/18/9 13/24/9 
f 1/23/9 13/24/9 15/25/9 14/26/9 
s 256
f 16/27/10 10/28/10 4/13/10 3/29/10 
s 1024
f 13/24/11 12/16/11 11/20/11 16/30/11 
f 11/20/11 10/14/11 16/30/11 
f 15/31/11 13/24/11 16/30/11 
s 2048
f 14/21/12 15/25/12 16/30/12 3/29/12 
f 2/2/12 14/21/12 3/29/12 
# 11 polygons - 6 triangles

