# 3ds Max Wavefront OBJ Exporter v0.97b - (c)2007 guruware
# File Created: 31.03.2017 20:22:07

mtllib piedra008.mtl

#
# object piedra8
#

v  0.2726 -0.0111 -0.4530
v  0.3491 -0.0111 -0.3210
v  0.3491 -0.0111 0.4059
v  -0.2417 -0.0111 -0.1111
v  0.0407 -0.0111 0.4530
v  -0.2413 -0.0111 -0.2305
v  -0.1237 -0.0111 -0.4530
v  -0.3491 0.3915 -0.3045
v  -0.3336 0.5643 -0.4530
v  -0.3176 0.2267 -0.2503
v  0.3129 0.5141 0.2837
v  0.3491 0.4692 0.2891
v  -0.1264 0.5306 -0.4530
v  -0.3331 0.5996 -0.4530
v  -0.3467 0.6335 -0.2869
v  -0.1030 0.6382 0.2003
v  -0.0414 0.5850 0.3205
v  0.0026 0.6214 0.3049
# 18 vertices

vn -0.0000 -1.0000 0.0000
vn 0.0000 -1.0000 -0.0000
vn 0.0000 -1.0000 0.0000
vn -0.0000 -1.0000 -0.0000
vn -0.8414 -0.3069 -0.4448
vn 0.7296 0.5373 -0.4230
vn -0.9521 -0.3057 -0.0028
vn 0.0000 0.0000 -1.0000
vn -0.9962 0.0161 -0.0852
vn -0.8940 -0.0236 0.4475
vn 1.0000 -0.0000 0.0000
vn -0.4166 0.7331 0.5376
vn 0.3123 0.9355 -0.1652
vn 0.1466 0.2338 0.9612
# 14 vertex normals

vt 0.0676 1.0000 0.0000
vt 0.0000 0.8834 0.0000
vt 0.0000 0.2407 0.0000
vt 0.5223 0.6978 0.0000
vt 0.2727 0.1991 0.0000
vt 0.5220 0.8034 0.0000
vt 0.4180 1.0000 0.0000
vt 0.5382 0.2894 0.0000
vt 0.5724 0.4997 0.0000
vt 0.4180 0.0000 0.0000
vt 0.5220 0.5953 0.0000
vt 0.5427 0.4787 0.0000
vt 0.2930 0.4926 0.0000
vt 0.3324 0.4287 0.0000
vt 0.8834 -0.0000 0.0000
vt 0.4204 0.7960 0.0000
vt 0.5427 0.1709 0.0000
vt 0.6036 0.4997 0.0000
vt 0.6031 0.5304 0.0000
vt 0.0676 0.0000 0.0000
vt 0.4204 0.4705 0.0000
vt 0.4885 0.7815 0.0000
vt 0.5700 0.5304 0.0000
vt 0.5382 0.8239 0.0000
vt 0.4666 0.2716 0.0000
vt 0.4885 0.4634 0.0000
vt 0.5223 0.0000 0.0000
vt 0.2727 0.0000 0.0000
vt 0.4508 0.2051 0.0000
vt 0.2407 0.0000 0.0000
vt 0.3440 0.4172 0.0000
vt 0.4073 0.3077 0.0000
vt 0.4666 0.3487 0.0000
vt 0.4508 0.2381 0.0000
vt 0.4073 0.3028 0.0000
vt 0.3046 0.4809 0.0000
# 36 texture coords

g piedra8
usemtl wire_011062021
s 7
f 1/1/1 2/2/1 3/3/1 4/4/1 
f 3/3/1 5/5/2 4/4/1 
f 1/1/1 4/4/1 6/6/3 7/7/4 
s 512
f 8/8/5 9/9/5 7/10/5 6/11/5 
f 8/8/5 6/11/5 10/12/5 
s 2048
f 11/13/6 12/14/6 2/15/6 13/16/6 
f 13/16/6 2/15/6 1/1/6 
s 8192
f 4/4/7 10/17/7 6/11/7 
s 24
f 7/10/8 9/18/8 14/19/8 1/20/8 
f 14/19/8 13/21/8 1/20/8 
s 32
f 15/22/9 14/23/9 9/9/9 8/24/9 
s 64
f 16/25/10 15/26/10 8/8/10 4/27/10 
f 8/8/10 10/17/10 4/27/10 
f 16/25/10 4/27/10 5/28/10 17/29/10 
s 16
f 3/30/11 2/15/11 12/31/11 
s 4096
f 18/32/12 16/33/12 17/34/12 
s 256
f 13/16/13 14/19/13 15/22/13 16/25/13 
f 13/16/13 16/25/13 18/35/13 11/36/13 
s 128
f 12/31/14 11/13/14 18/35/14 17/34/14 
f 12/31/14 17/34/14 5/28/14 3/3/14 
# 12 polygons - 8 triangles

