# 3ds Max Wavefront OBJ Exporter v0.97b - (c)2007 guruware
# File Created: 31.03.2017 20:18:57

mtllib piedra003.mtl

#
# object piedra3
#

v  -0.3402 0.0322 -0.2190
v  -0.3402 -0.0125 -0.2190
v  -0.3402 -0.0125 -0.1420
v  0.3322 -0.0125 -0.2190
v  0.4289 0.0197 -0.1868
v  0.3636 -0.0021 -0.0974
v  0.3322 -0.0125 -0.0869
v  -0.0238 0.2652 -0.2190
v  0.3322 0.0875 -0.2190
v  0.3322 0.0072 -0.0869
v  -0.0007 -0.0125 0.2190
v  0.3322 -0.0125 -0.0544
v  -0.0597 -0.0125 0.2143
v  -0.0335 0.0086 0.2112
# 14 vertices

vn -1.0000 0.0000 -0.0000
vn 0.3162 -0.9487 -0.0000
vn 0.0000 -0.7071 -0.7071
vn 0.0000 0.0000 -1.0000
vn 0.3162 0.0000 0.9487
vn 0.3162 0.0000 -0.9487
vn 0.0000 -1.0000 -0.0000
vn 0.0000 -1.0000 0.0000
vn -0.0000 -1.0000 0.0000
vn -0.5373 0.7296 0.4230
vn 1.0000 0.0000 -0.0000
vn 0.3923 0.7861 0.4776
vn -0.0766 0.2394 0.9679
# 13 vertex normals

vt 0.0676 1.0000 0.0000
vt 0.0000 1.0000 0.0000
vt 0.0000 0.8834 0.0000
vt 1.0000 1.0000 0.0000
vt 1.0000 0.8317 0.0000
vt 1.0000 0.8000 0.0000
vt 0.0000 0.0000 0.0000
vt 0.0676 0.0000 0.0000
vt 0.4204 0.4705 0.0000
vt 0.1514 1.0000 0.0000
vt 0.9701 0.8000 0.0000
vt 0.9683 0.8000 0.0000
vt 0.9024 1.0000 0.0000
vt 0.8486 1.0000 0.0000
vt 1.0000 -0.0000 0.0000
vt 0.8000 1.0000 0.0000
vt 0.3369 0.5050 0.0000
vt 0.7507 1.0000 0.0000
vt 0.3440 0.4172 0.0000
vt 0.8834 -0.0000 0.0000
vt 0.1218 0.4705 0.0000
vt 0.0000 0.7611 0.0000
vt 0.0093 0.7288 0.0000
vt 1.0000 0.7507 0.0000
vt 0.0320 0.7288 0.0000
vt 0.0689 0.7730 0.0000
# 26 texture coords

g piedra3
usemtl wire_085091091
s 7
f 1/1/1 2/2/1 3/3/1 
s off
f 4/4/2 5/4/2 6/5/2 7/6/2 
s 24
f 2/7/3 1/8/4 8/9/4 4/2/3 
f 8/9/4 9/10/4 4/2/3 
s off
f 10/11/5 7/6/5 6/12/5 
f 5/13/6 4/4/6 9/14/6 
s 16
f 2/15/3 4/4/3 7/16/7 11/17/8 
f 7/16/7 12/18/7 11/17/8 
f 2/15/3 11/17/8 13/19/9 3/20/7 
s 32
f 8/21/10 1/8/10 3/3/10 13/22/10 
f 8/21/10 13/22/10 14/23/10 
s 5
f 12/24/11 7/6/11 10/11/11 
s 64
f 8/9/12 14/25/12 11/26/12 12/18/12 
f 8/9/12 12/18/12 10/11/12 5/4/12 
f 10/11/12 6/12/12 5/4/12 
f 8/9/12 5/4/12 9/14/12 
s 128
f 11/17/13 14/25/13 13/22/13 
# 7 polygons - 10 triangles

